<svg width="108" height="40" viewBox="0 0 108 40" fill="none" xmlns="http://www.w3.org/2000/svg">
<g clip-path="url(#clip0_1454_10248)">
<path d="M44.753 15.7571C44.753 11.8508 41.5878 8.68555 37.6815 8.68555H23.5401V25.6562H15.0539C14.2733 25.6562 13.6393 25.0222 13.6393 24.2416C13.6393 23.461 14.2733 22.8269 15.0539 22.8269H17.8816V24.2416L22.1238 19.9993L17.8816 15.7571V17.1717H15.0539C14.2733 17.1717 13.6393 16.5377 13.6393 15.7571C13.6393 14.9765 14.2733 14.3424 15.0539 14.3424H20.7108V8.68555H15.0539C11.1476 8.68555 7.98242 11.8508 7.98242 15.7571C7.98242 17.3496 8.50776 18.8185 9.39541 19.9993C8.50776 21.1817 7.98242 22.6491 7.98242 24.2416C7.98242 28.1479 11.1476 31.3131 15.0539 31.3131H29.1953V14.3424H37.6798C38.4604 14.3424 39.0944 14.9765 39.0944 15.7571C39.0944 16.5377 38.4604 17.1717 37.6798 17.1717H34.8538V15.7571L30.6116 19.9993L34.8538 24.2416V22.8269H37.6815C38.4621 22.8269 39.0961 23.461 39.0961 24.2416C39.0961 25.0222 38.4621 25.6562 37.6815 25.6562H32.0246V31.3131H37.6815C41.5878 31.3131 44.753 28.1479 44.753 24.2416C44.753 22.6491 44.2276 21.1801 43.34 19.9993C44.2276 18.8185 44.753 17.3496 44.753 15.7571Z" fill="#177533"/>
<path d="M27.7823 5.85756H24.953L23.54 0.200684H29.1969L27.7823 5.85756Z" fill="#FFD333"/>
<path d="M24.953 34.1421H27.7823L29.1969 39.799H23.54L24.953 34.1421Z" fill="#FFD333"/>
<path d="M46.167 21.4136V18.586L51.8222 17.1714V22.8283L46.167 21.4136Z" fill="#FFD333"/>
<path d="M6.56899 18.586V21.4136L0.912109 22.8283V17.1714L6.56899 18.586Z" fill="#FFD333"/>
<path d="M39.3672 35.0004L41.3664 32.9995L46.3679 36L42.3677 40.0002L39.3672 35.0004Z" fill="#FFD333"/>
<path d="M13.3672 4.99979L11.368 7.0007L6.36816 4.00016L10.3683 0L13.3672 4.99979Z" fill="#FFD333"/>
<path d="M41.3664 7.0007L39.3672 4.99979L42.3677 0L46.3679 4.00016L41.3664 7.0007Z" fill="#FFD333"/>
<path d="M11.368 32.9995L13.3672 35.0004L10.3683 40.0002L6.36816 36L11.368 32.9995Z" fill="#FFD333"/>
<path d="M54.0459 18.6737V8.42871H57.7266C59.044 8.42871 60.047 8.6708 60.7353 9.15332C61.4221 9.63584 61.7663 10.3374 61.7663 11.258C61.7663 11.7883 61.6444 12.2411 61.4007 12.6166C61.1569 12.9921 60.7979 13.2688 60.3236 13.4466C60.8589 13.5866 61.2689 13.8501 61.5555 14.2355C61.842 14.6208 61.9853 15.0902 61.9853 15.6435C61.9853 16.6481 61.6675 17.4023 61.0318 17.9063C60.3961 18.4102 59.4541 18.6671 58.2058 18.677H54.0459V18.6737ZM56.5162 12.7006H57.804C58.3425 12.6957 58.7279 12.5969 58.9584 12.4042C59.1873 12.2115 59.3026 11.9266 59.3026 11.5495C59.3026 11.1163 59.1791 10.8051 58.9304 10.6141C58.6817 10.423 58.2799 10.3275 57.7266 10.3275H56.5162V12.7006ZM56.5162 14.3178V16.7732H58.135C58.5813 16.7732 58.9238 16.6711 59.1626 16.4669C59.4014 16.2627 59.5216 15.9762 59.5216 15.6056C59.5216 14.7526 59.0967 14.3227 58.2486 14.3178H56.5162Z" fill="#177533"/>
<path d="M69.696 14.326H65.8111V16.7749H70.3992V18.6753H63.3408V8.42871H70.4123V10.3357H65.8111V12.4964H69.696V14.326Z" fill="#177533"/>
<path d="M74.8883 14.8593L73.8755 15.9709V18.6734H71.4053V8.42841H73.8755V12.9457L74.7335 11.643L76.9436 8.42676H79.9968L76.5352 12.9605L79.9968 18.675H77.0704L74.8883 14.8593Z" fill="#177533"/>
<path d="M86.4428 16.7601H83.0585L82.4673 18.6737H79.8291L83.5872 8.42871H85.9092L89.6953 18.6737H87.0422L86.4428 16.7601ZM83.6481 14.853H85.8499L84.7449 11.2991L83.6481 14.853Z" fill="#177533"/>
<path d="M95.724 15.9497C95.724 15.589 95.5955 15.3074 95.3403 15.1048C95.085 14.9039 94.6354 14.6948 93.9932 14.479C93.3509 14.2633 92.8256 14.0541 92.4172 13.8532C91.0898 13.2011 90.4261 12.3052 90.4261 11.1656C90.4261 10.5974 90.5908 10.0968 90.9218 9.66368C91.2528 9.23056 91.7205 8.89132 92.3249 8.65088C92.9293 8.40879 93.6095 8.28857 94.3654 8.28857C95.1015 8.28857 95.7619 8.42032 96.3465 8.68217C96.9311 8.94566 97.384 9.31949 97.7084 9.80531C98.0312 10.2911 98.1942 10.8461 98.1942 11.4686H95.7322C95.7322 11.0503 95.6038 10.7275 95.3485 10.497C95.0933 10.2681 94.7474 10.1528 94.311 10.1528C93.8697 10.1528 93.5222 10.25 93.2669 10.4443C93.0117 10.6386 92.8832 10.8873 92.8832 11.187C92.8832 11.4505 93.0232 11.6876 93.3048 11.9017C93.5864 12.1158 94.0805 12.3365 94.7902 12.5638C95.4984 12.791 96.0797 13.0364 96.5359 13.2982C97.6426 13.9356 98.1959 14.8166 98.1959 15.9365C98.1959 16.8324 97.8583 17.5356 97.1831 18.0477C96.5079 18.5599 95.5807 18.8151 94.4032 18.8151C93.5732 18.8151 92.8206 18.6669 92.1487 18.3689C91.4752 18.0708 90.9696 17.6624 90.6287 17.1453C90.2878 16.6265 90.1182 16.0303 90.1182 15.3551H92.595C92.595 15.9035 92.7366 16.3087 93.0199 16.5689C93.3031 16.8291 93.7643 16.9592 94.4032 16.9592C94.8116 16.9592 95.1344 16.8719 95.3716 16.6957C95.6054 16.5178 95.724 16.2691 95.724 15.9497Z" fill="#177533"/>
<path d="M54.0459 31.7118V21.4668H57.5569C58.7163 21.4668 59.5974 21.699 60.2034 22.1634C60.8078 22.6278 61.1108 23.3195 61.1108 24.2384C61.1108 24.7078 60.984 25.1294 60.7304 25.5048C60.4768 25.8803 60.1063 26.1702 59.6188 26.3777C60.1721 26.5275 60.6003 26.8108 60.9033 27.2258C61.2063 27.6408 61.3578 28.1398 61.3578 28.7211C61.3578 29.6829 61.0499 30.4223 60.4323 30.9378C59.8148 31.4532 58.9321 31.7118 57.7826 31.7118H54.0459ZM55.8261 25.7799H57.5718C58.1251 25.7799 58.5582 25.6547 58.8695 25.4027C59.1807 25.1524 59.3372 24.7967 59.3372 24.3372C59.3372 23.83 59.1923 23.4644 58.9041 23.2388C58.6159 23.0132 58.1663 22.9012 57.5569 22.9012H55.8261V25.7799ZM55.8261 27.0891V30.2905H57.804C58.3623 30.2905 58.7987 30.1522 59.1132 29.8755C59.4278 29.5989 59.5842 29.2135 59.5842 28.7211C59.5842 27.6556 59.0391 27.1122 57.9522 27.0891H55.8261Z" fill="#FFD333"/>
<path d="M69.1246 27.1385H64.9169V30.2905H69.836V31.7118H63.1367V21.4668H69.7866V22.9028H64.9169V25.7321H69.1246V27.1385Z" fill="#FFD333"/>
<path d="M75.0498 27.7709H73.0654V31.7118H71.2852V21.4668H74.8884C76.0709 21.4668 76.9832 21.7319 77.6255 22.2622C78.2677 22.7925 78.5889 23.5599 78.5889 24.5645C78.5889 25.2496 78.4242 25.8243 78.0932 26.2871C77.7622 26.7498 77.301 27.1056 76.7098 27.3542L79.0105 31.6212V31.7134H77.1034L75.0498 27.7709ZM73.0654 26.3365H74.895C75.4961 26.3365 75.9638 26.185 76.3031 25.882C76.6407 25.5789 76.8103 25.1656 76.8103 24.6402C76.8103 24.0919 76.6538 23.667 76.3426 23.3672C76.0313 23.0675 75.5653 22.9127 74.9461 22.9028H73.067V26.3365H73.0654Z" fill="#FFD333"/>
<path d="M83.2196 27.2865L82.0585 28.5184V31.7132H80.2783V21.4683H82.0585V26.2737L83.0434 25.0567L86.0406 21.4683H88.1947L84.3872 26.0069L88.412 31.7132H86.3008L83.2196 27.2865Z" fill="#FFD333"/>
<path d="M95.0962 29.327H91.1273L90.2973 31.7132H88.4463L92.3164 21.4683H93.9138L97.7904 31.7132H95.9344L95.0962 29.327ZM91.628 27.8909H94.5972L93.1118 23.6404L91.628 27.8909Z" fill="#FFD333"/>
<path d="M107.088 31.7118H105.314V27.1665H100.732V31.7118H98.9521V21.4668H100.732V25.7305H105.314V21.4668H107.088V31.7118Z" fill="#FFD333"/>
</g>
<defs>
<clipPath id="clip0_1454_10248">
<rect width="106.175" height="40" fill="white" transform="translate(0.912109)"/>
</clipPath>
</defs>
</svg>
