<svg width="164" height="164" viewBox="0 0 164 164" fill="none" xmlns="http://www.w3.org/2000/svg">
<path d="M161.352 64.1337C102.597 56.0625 51.9301 99.6892 55.3345 157.556M33.1123 46.4448C33.1123 51.1597 34.9853 55.6816 38.3193 59.0156C41.6533 62.3495 46.1751 64.2225 50.8901 64.2225C55.605 64.2225 60.1269 62.3495 63.4609 59.0156C66.7948 55.6816 68.6679 51.1597 68.6679 46.4448C68.6679 41.7298 66.7948 37.208 63.4609 33.874C60.1269 30.54 55.605 28.667 50.8901 28.667C46.1751 28.667 41.6533 30.54 38.3193 33.874C34.9853 37.208 33.1123 41.7298 33.1123 46.4448Z" stroke="#909091" stroke-width="4" stroke-linecap="round" stroke-linejoin="round"/>
<path d="M2 91.4764C26.7111 88.0542 48.8889 99.992 60.88 119.032" stroke="#909091" stroke-width="4" stroke-linecap="round" stroke-linejoin="round"/>
<path d="M2 58.8889C2 38.9778 2 29.0222 5.87556 21.4133C9.28434 14.7234 14.7234 9.28434 21.4133 5.87556C29.0222 2 38.9778 2 58.8889 2H105.111C125.022 2 134.978 2 142.587 5.87556C149.277 9.28434 154.716 14.7234 158.124 21.4133C162 29.0222 162 38.9778 162 58.8889V105.111C162 125.022 162 134.978 158.124 142.587C154.716 149.277 149.277 154.716 142.587 158.124C134.978 162 125.022 162 105.111 162H58.8889C38.9778 162 29.0222 162 21.4133 158.124C14.7234 154.716 9.28434 149.277 5.87556 142.587C2 134.978 2 125.022 2 105.111V58.8889Z" stroke="#909091" stroke-width="4" stroke-linecap="round" stroke-linejoin="round"/>
</svg>
