<svg width="19" height="19" viewBox="0 0 19 19" fill="none" xmlns="http://www.w3.org/2000/svg">
<path fill-rule="evenodd" clip-rule="evenodd" d="M0.849609 9.8125C0.849609 6.21736 0.849609 4.41979 1.7063 3.12505C2.08886 2.54689 2.584 2.05175 3.16216 1.66919C4.4569 0.8125 6.25447 0.8125 9.84961 0.8125C13.4447 0.8125 15.2423 0.8125 16.5371 1.66919C17.1152 2.05175 17.6104 2.54689 17.9929 3.12505C18.8496 4.41979 18.8496 6.21736 18.8496 9.8125C18.8496 13.4076 18.8496 15.2052 17.9929 16.4999C17.6104 17.0781 17.1152 17.5733 16.5371 17.9558C15.2423 18.8125 13.4447 18.8125 9.84961 18.8125C6.25447 18.8125 4.4569 18.8125 3.16216 17.9558C2.584 17.5733 2.08886 17.0781 1.7063 16.4999C0.849609 15.2052 0.849609 13.4076 0.849609 9.8125ZM14.5092 9.81279C14.5092 12.3861 12.4231 14.4722 9.84981 14.4722C7.27649 14.4722 5.1904 12.3861 5.1904 9.81279C5.1904 7.23947 7.27649 5.15338 9.84981 5.15338C12.4231 5.15338 14.5092 7.23947 14.5092 9.81279ZM9.84981 12.8958C11.5525 12.8958 12.9328 11.5155 12.9328 9.81279C12.9328 8.11009 11.5525 6.72978 9.84981 6.72978C8.14712 6.72978 6.76681 8.11009 6.76681 9.81279C6.76681 11.5155 8.14712 12.8958 9.84981 12.8958ZM14.6932 6.01411C15.2979 6.01411 15.7881 5.52394 15.7881 4.91929C15.7881 4.31463 15.2979 3.82446 14.6932 3.82446C14.0886 3.82446 13.5984 4.31463 13.5984 4.91929C13.5984 5.52394 14.0886 6.01411 14.6932 6.01411Z" fill="#3E8C55"/>
</svg>
