<svg width="19" height="16" viewBox="0 0 19 16" fill="none" xmlns="http://www.w3.org/2000/svg">
<path d="M12.8767 0.513984V0.510742H13.7207L14.029 0.572334C14.2346 0.61232 14.4213 0.664722 14.589 0.729556C14.7567 0.794389 14.9191 0.870034 15.0759 0.956473C15.2328 1.04291 15.3751 1.13099 15.5028 1.22067C15.6294 1.30928 15.743 1.40329 15.8437 1.5027C15.9432 1.60319 16.0985 1.62912 16.3095 1.5805C16.5205 1.53187 16.7477 1.46433 16.9912 1.37789C17.2346 1.29145 17.4754 1.1942 17.7135 1.08614C17.9515 0.978079 18.0965 0.909469 18.1485 0.880294C18.1993 0.850049 18.2264 0.833841 18.2296 0.831669L18.2328 0.826806L18.2491 0.818702L18.2653 0.810598L18.2815 0.802494L18.2978 0.794389L18.301 0.789527L18.3059 0.786285L18.3108 0.783043L18.314 0.778181L18.3302 0.773318L18.3465 0.770077L18.3432 0.794389L18.3383 0.818702L18.3302 0.843015L18.3221 0.867327L18.314 0.883536L18.3059 0.899744L18.2978 0.924057C18.2924 0.940265 18.287 0.961871 18.2815 0.98889C18.2761 1.01591 18.2247 1.12395 18.1273 1.31306C18.03 1.50216 17.9082 1.69396 17.7621 1.88846C17.6161 2.08296 17.4851 2.2299 17.3694 2.32933C17.2525 2.42982 17.1751 2.50005 17.1373 2.54003C17.0994 2.58109 17.0534 2.61891 16.9993 2.65349L16.9181 2.70698L16.9019 2.71509L16.8857 2.72319L16.8824 2.72805L16.8776 2.73129L16.8727 2.73454L16.8694 2.7394L16.8532 2.7475L16.837 2.75561L16.8338 2.76047L16.8289 2.76371L16.824 2.76695L16.8208 2.77182L16.8175 2.77668L16.8126 2.77992L16.8078 2.78316L16.8045 2.78802H16.8857L17.3401 2.69077C17.6431 2.62594 17.9326 2.5476 18.2085 2.45575L18.6467 2.30988L18.6954 2.29367L18.7198 2.28556L18.736 2.27746L18.7522 2.26935L18.7685 2.26125L18.7847 2.25315L18.8171 2.24828L18.8496 2.24504V2.27746L18.8415 2.2807L18.8334 2.28556L18.8301 2.29043L18.8253 2.29367L18.8204 2.29691L18.8171 2.30177L18.8139 2.30663L18.809 2.30988L18.8042 2.31312L18.8009 2.31798L18.7977 2.32284L18.7928 2.32608L18.7847 2.34229L18.7766 2.3585L18.7717 2.36174C18.7695 2.36498 18.7008 2.45682 18.5656 2.63729C18.4303 2.81882 18.3573 2.91066 18.3465 2.91283C18.3356 2.91607 18.3205 2.93228 18.301 2.96145C18.2826 2.9917 18.1679 3.11219 17.9569 3.3229C17.7459 3.53361 17.5393 3.72108 17.3369 3.88533C17.1335 4.05066 17.0307 4.2538 17.0285 4.49477C17.0253 4.73465 17.0128 5.00589 16.9912 5.30843C16.9695 5.61099 16.929 5.93785 16.8694 6.28904C16.8099 6.64023 16.718 7.03733 16.5935 7.48036C16.4691 7.92338 16.3176 8.35561 16.1391 8.77703C15.9605 9.19845 15.7739 9.57664 15.5791 9.91162C15.3843 10.2466 15.2058 10.5302 15.0435 10.7626C14.8812 10.9949 14.7162 11.2137 14.5484 11.419C14.3807 11.6243 14.1687 11.8556 13.9122 12.1127C13.6547 12.3688 13.514 12.5093 13.4902 12.5341C13.4653 12.5579 13.3593 12.6465 13.1721 12.8C12.986 12.9545 12.7858 13.109 12.5715 13.2635C12.3584 13.417 12.1625 13.545 11.984 13.6477C11.8054 13.7503 11.5901 13.8675 11.338 13.9994C11.087 14.1323 10.8153 14.2555 10.5232 14.3689C10.231 14.4824 9.92265 14.5877 9.59803 14.685C9.27341 14.7822 8.95962 14.8579 8.65664 14.9119C8.35368 14.9659 8.01012 15.0119 7.62598 15.0497L7.04979 15.1064V15.1145H5.99479V15.1064L5.85682 15.0983C5.76486 15.0929 5.68911 15.0875 5.62959 15.0821C5.57009 15.0767 5.34555 15.047 4.95601 14.993C4.56647 14.9389 4.2608 14.8849 4.03897 14.8309C3.81716 14.7768 3.48712 14.6742 3.04889 14.5229C2.61066 14.3716 2.23572 14.2187 1.92409 14.0642C1.61355 13.9108 1.41878 13.8135 1.33978 13.7725C1.26187 13.7325 1.17423 13.6828 1.07684 13.6233L0.930764 13.5342L0.927534 13.5293L0.922648 13.5261L0.917779 13.5229L0.914533 13.518L0.898302 13.5099L0.882071 13.5018L0.878841 13.4969L0.873956 13.4937L0.869086 13.4904L0.86584 13.4856L0.86261 13.4807L0.857725 13.4775H0.849609V13.4451L0.86584 13.4483L0.882071 13.4532L0.95511 13.4613C1.0038 13.4667 1.13636 13.4748 1.35277 13.4856C1.56919 13.4964 1.79911 13.4964 2.04258 13.4856C2.28604 13.4748 2.53492 13.4504 2.78919 13.4126C3.04348 13.3748 3.34375 13.31 3.69001 13.2181C4.03627 13.1263 4.3544 13.0171 4.6444 12.8907C4.9333 12.7632 5.13888 12.6681 5.26117 12.6055C5.38235 12.5439 5.56738 12.4293 5.81625 12.2618L6.18956 12.0106L6.1928 12.0057L6.19767 12.0025L6.20256 11.9993L6.20579 11.9944L6.20903 11.9895L6.2139 11.9863L6.21879 11.9831L6.22202 11.9782L6.23825 11.9733L6.25448 11.9701L6.25772 11.9539L6.26259 11.9377L6.26748 11.9344L6.27071 11.9296L6.14086 11.9215C6.0543 11.9161 5.97044 11.9107 5.88928 11.9053C5.80813 11.8999 5.68099 11.8755 5.50786 11.8323C5.33474 11.7891 5.14809 11.7243 4.9479 11.6378C4.74772 11.5514 4.55295 11.4487 4.36359 11.3299C4.17424 11.211 4.03735 11.1121 3.95295 11.0332C3.86963 10.9554 3.76142 10.8452 3.62833 10.7026C3.49632 10.5589 3.38162 10.4114 3.28424 10.2601C3.18685 10.1088 3.0938 9.93429 3.00508 9.73657L2.87035 9.44158L2.86223 9.41726L2.85412 9.39295L2.84925 9.37674L2.846 9.36053L2.87035 9.36378L2.8947 9.36864L3.07323 9.39295C3.19227 9.40916 3.37893 9.41456 3.6332 9.40916C3.88749 9.40376 4.06332 9.39295 4.1607 9.37674C4.25809 9.36053 4.3176 9.34972 4.33924 9.34433L4.3717 9.33622L4.41228 9.32812L4.45286 9.32001L4.4561 9.31515L4.46097 9.31191L4.46586 9.30867L4.46909 9.3038L4.43662 9.2957L4.40416 9.2876L4.3717 9.27949L4.33924 9.27139L4.30678 9.26328C4.28514 9.25788 4.24728 9.24707 4.19316 9.23087C4.13906 9.21466 3.99299 9.15522 3.75493 9.05257C3.51689 8.94993 3.32752 8.84997 3.18685 8.75272C3.04583 8.65519 2.91137 8.54852 2.78433 8.43341C2.65772 8.31671 2.51869 8.16651 2.36719 7.98282C2.21571 7.79913 2.08046 7.58571 1.96142 7.34259C1.8424 7.09946 1.75313 6.86715 1.69361 6.64562C1.63433 6.42541 1.59522 6.20026 1.57677 5.97298L1.54754 5.6326L1.56377 5.63584L1.58 5.6407L1.59623 5.64881L1.61246 5.65691L1.62869 5.66502L1.64492 5.67312L1.8965 5.78658C2.06423 5.86222 2.27252 5.92706 2.52139 5.98108C2.77027 6.0351 2.91904 6.06483 2.96773 6.07023L3.04077 6.07833H3.18685L3.18362 6.07347L3.17873 6.07023L3.17387 6.06698L3.17062 6.06212L3.16739 6.05726L3.1625 6.05402L3.15763 6.05078L3.15439 6.04591L3.13816 6.03781L3.12193 6.02971L3.1187 6.02484L3.11381 6.0216L3.10894 6.01836L3.1057 6.0135L3.08947 6.00539L3.07323 5.99729L3.07 5.99243C3.06676 5.99025 3.02022 5.95568 2.9304 5.88869C2.84167 5.82062 2.74862 5.73256 2.65123 5.6245C2.55385 5.51643 2.45646 5.40297 2.35908 5.28412C2.26151 5.16499 2.17461 5.03753 2.09938 4.90322C2.02365 4.76816 1.94357 4.59633 1.85917 4.38779C1.77585 4.18033 1.71255 3.97124 1.66927 3.76053C1.626 3.54982 1.60165 3.34182 1.59623 3.1365C1.59082 2.93119 1.59623 2.75561 1.61246 2.60973C1.62869 2.46386 1.66115 2.29906 1.70984 2.11537C1.75854 1.93168 1.82888 1.73718 1.92084 1.53187L2.05881 1.22391L2.06692 1.1996L2.07504 1.17529L2.07992 1.17205L2.08315 1.16718L2.0864 1.16232L2.09127 1.15908L2.09615 1.16232L2.09938 1.16718L2.10263 1.17205L2.1075 1.17529L2.11238 1.17853L2.11561 1.18339L2.11886 1.18825L2.12373 1.1915L2.13185 1.2077L2.13996 1.22391L2.14485 1.22715L2.14808 1.23202L2.36719 1.47514C2.51327 1.63723 2.6864 1.81823 2.88658 2.01812C3.08677 2.21802 3.19768 2.32176 3.21931 2.32933C3.24096 2.33796 3.268 2.36281 3.30047 2.40388C3.33293 2.44387 3.44114 2.5395 3.62508 2.69077C3.80904 2.84205 4.0498 3.01765 4.34736 3.21755C4.64493 3.41744 4.97495 3.61465 5.33744 3.80915C5.69994 4.00365 6.08948 4.17924 6.50606 4.33593C6.92265 4.49261 7.21481 4.59526 7.38252 4.64389C7.55025 4.69251 7.83699 4.75464 8.24276 4.83028C8.64853 4.90593 8.95422 4.95455 9.1598 4.97616C9.36539 4.99776 9.50607 5.0102 9.5818 5.01344L9.69542 5.01668L9.69219 4.99237L9.6873 4.96805L9.65484 4.76545C9.6332 4.63038 9.62238 4.44128 9.62238 4.19816C9.62238 3.95503 9.64132 3.73082 9.67919 3.52551C9.71707 3.32019 9.77388 3.11219 9.84961 2.90148C9.92536 2.69077 9.99949 2.52165 10.072 2.39416C10.1456 2.26773 10.2419 2.12348 10.3609 1.96139C10.4799 1.79931 10.6341 1.63183 10.8235 1.45893C11.0128 1.28604 11.2292 1.13206 11.4727 0.996994C11.7162 0.86193 11.9407 0.759266 12.1463 0.689035C12.3519 0.618804 12.525 0.572869 12.6657 0.551263C12.8063 0.529657 12.8767 0.517226 12.8767 0.513984Z" fill="#3E8C55"/>
</svg>
