<svg width="21" height="15" viewBox="0 0 21 15" fill="none" xmlns="http://www.w3.org/2000/svg">
<path d="M11.2879 14.7927L7.22568 14.7167C5.91044 14.6903 4.59191 14.7431 3.30246 14.469C1.34089 14.0595 1.20193 12.0516 1.05652 10.3674C0.856153 7.99952 0.933719 5.5887 1.31183 3.24063C1.52528 1.92311 2.36532 1.13694 3.6644 1.05139C8.04975 0.740917 12.4643 0.777711 16.8399 0.922559C17.302 0.935838 17.7673 1.00841 18.223 1.09102C20.4723 1.49394 20.5271 3.76934 20.673 5.6848C20.8184 7.62002 20.757 9.56518 20.479 11.4872C20.2561 13.0786 19.8295 14.4132 18.0291 14.542C15.7733 14.7105 13.5693 14.8461 11.3072 14.8029C11.3073 14.7927 11.2943 14.7927 11.2879 14.7927ZM8.8997 10.7637C10.5996 9.76628 12.2671 8.78549 13.9573 7.79477C12.2542 6.79736 10.5899 5.81657 8.8997 4.82585V10.7637Z" fill="#3E8C55"/>
</svg>
